<svg xmlns="http://www.w3.org/2000/svg" width="1160" height="660" viewBox="0 0 1160 660" role="img" aria-label="空间 MDP:关系依赖 DAG(基准鼓心+入口轴、drum、dome、oculus、vestibule、portico),父集小框「柱位|台基」,非局部约束走全局门;三推论与落位求解器">
<style>
@import url('https://fonts.googleapis.com/css2?family=Inter:wght@400;700&amp;family=Space+Mono:wght@400;700&amp;family=Noto+Sans+SC:wght@400;500;700&amp;display=swap');
:root{--ink:#1a1a1a;--muted:#737373;--faint:#a6a6a6;--line:#ededed;--line-strong:#dcdcdc;--bg:#ffffff;--ok:#3f7350;--gate:#a3822f;--risk:#a4453a;
--sans:"Inter","Noto Sans SC","PingFang SC","Microsoft YaHei","Helvetica Neue",Arial,sans-serif;
--mono:"Space Mono","SFMono-Regular",Consolas,Menlo,monospace;}
@media (prefers-color-scheme:dark){:root{--ink:#e8e8e8;--muted:#9a9a9a;--faint:#6f6f6f;--line:#242424;--line-strong:#333333;--bg:#141414;--ok:#6fae83;--gate:#c9a558;--risk:#c76b5f;}}
.bg{fill:var(--bg)}
.bx{fill:none;stroke:var(--line-strong);stroke-width:1}
.bx2{fill:none;stroke:var(--ink);stroke-width:1.3}
.t1{font:700 13px var(--sans);fill:var(--ink)}
.t1m{font:700 12px var(--mono);fill:var(--ink)}
.t2{font:11px var(--sans);fill:var(--muted)}
.t2s{font:10px var(--sans);fill:var(--muted)}
.t3{font:9.5px var(--mono);fill:var(--faint);letter-spacing:.08em}
.t4{font:10.5px var(--sans);fill:var(--ink)}
.t5{font:10px var(--mono);fill:var(--muted)}
.gt-m{font:9.5px var(--mono);fill:var(--gate);letter-spacing:.04em}
.gt-l{stroke:var(--gate);stroke-width:1.2;fill:none}
.ln{stroke:var(--ink);stroke-width:1;fill:none}
.lnf{stroke:var(--faint);stroke-width:.8;fill:none}
.dot{fill:var(--faint)}
.ok-l{stroke:var(--ok);stroke-width:1.3;fill:none}
.ok-t{font:10px var(--sans);fill:var(--ok)}
.rk-l{stroke:var(--risk);stroke-width:1.2;fill:none}
.rk-t{font:10.5px var(--sans);fill:var(--risk)}
.ah{fill:var(--ink)}.ahk{fill:var(--ok)}.ahr{fill:var(--risk)}
</style>
<rect class="bg" width="1160" height="660"/>
<defs>
<marker id="ah" viewBox="0 0 10 10" refX="9" refY="5" markerWidth="7" markerHeight="7" orient="auto-start-reverse"><path d="M0,0 L10,5 L0,10 z" class="ah"/></marker>
<marker id="ahk" viewBox="0 0 10 10" refX="9" refY="5" markerWidth="7" markerHeight="7" orient="auto-start-reverse"><path d="M0,0 L10,5 L0,10 z" class="ahk"/></marker>
<marker id="ahr" viewBox="0 0 10 10" refX="9" refY="5" markerWidth="7" markerHeight="7" orient="auto-start-reverse"><path d="M0,0 L10,5 L0,10 z" class="ahr"/></marker>
</defs>

<text x="40" y="34" class="t3">空间 MDP SPATIAL MARKOV — 关系图 = 依赖 DAG,落位 = 拓扑序前向推算,每步只看父集(Kevin 判词 2026-07-17)</text>

<!-- DAG -->
<rect x="200" y="60" width="240" height="52" class="bx2"/>
<text x="216" y="84" class="t1">基准 DATUM</text>
<text x="216" y="102" class="t4">鼓心 drum center + 入口轴 entry axis</text>

<path d="M320,112 L320,156" class="ln" marker-end="url(#ah)"/>
<rect x="240" y="158" width="160" height="48" class="bx"/>
<text x="252" y="180" class="t4">鼓 drum</text>
<text x="252" y="196" class="t5">cylinder · d=跨度</text>

<path d="M320,206 L320,250" class="ln" marker-end="url(#ah)"/>
<text x="330" y="232" class="t5">bears_on(穹顶承托于鼓座)</text>
<rect x="240" y="252" width="160" height="48" class="bx"/>
<text x="252" y="274" class="t4">穹 dome</text>
<text x="252" y="290" class="t5">hemisphere · rise=半径</text>

<path d="M320,300 L320,344" class="ln" marker-end="url(#ah)"/>
<text x="330" y="326" class="t5">centered_in_apex_of</text>
<rect x="240" y="346" width="160" height="48" class="bx"/>
<text x="252" y="368" class="t4">眼窗 oculus</text>
<text x="252" y="384" class="t5">d=8.9 · 居顶心</text>

<path d="M400,182 L468,182" class="ln" marker-end="url(#ah)"/>
<text x="410" y="174" class="t5">接</text>
<rect x="470" y="158" width="170" height="48" class="bx"/>
<text x="482" y="180" class="t4">中介块 vestibule</text>
<text x="482" y="196" class="t5">明信片偏差判例</text>
<path d="M440,104 C490,120 530,138 552,156" class="lnf" stroke-dasharray="4 3" marker-end="url(#ah)"/>
<text x="470" y="134" class="t3">入口轴 entry axis</text>
<path d="M640,182 L708,182" class="ln" marker-end="url(#ah)"/>
<text x="650" y="174" class="t5">接</text>
<rect x="710" y="158" width="170" height="48" class="bx"/>
<text x="722" y="180" class="t4">门廊 portico</text>
<text x="722" y="196" class="t5">box · 33.1×15.5</text>

<!-- 父集高亮 -->
<rect x="230" y="150" width="180" height="64" class="gt-l" stroke-dasharray="5 4"/>
<text x="40" y="170" class="gt-m">父集 PARENT SET</text>
<text x="40" y="188" class="t2s">推算 dome 只看 {drum}</text>
<text x="40" y="204" class="t2s">无需读取其他节点</text>
<path d="M150,184 L226,180" class="lnf" stroke-dasharray="3 3"/>

<!-- 局部马尔可夫 inset -->
<rect x="700" y="252" width="420" height="180" class="bx2"/>
<text x="716" y="278" class="t1">局部马尔可夫「柱位 | 台基」</text>
<text x="1104" y="278" class="t3" text-anchor="end">LOCAL MARKOV</text>
<rect x="724" y="286" width="8" height="14" class="ah"/>
<rect x="782" y="286" width="8" height="14" class="ah"/>
<rect x="840" y="286" width="8" height="14" class="ah"/>
<rect x="898" y="286" width="8" height="14" class="ah"/>
<rect x="716" y="300" width="200" height="26" class="ln"/>
<text x="722" y="318" class="t2s">台基 stylobate(父)</text>
<text x="940" y="318" class="t1m">P(柱位 | 台基)</text>
<text x="716" y="352" class="t2">「原点只存在于实现层,设计层无坐标——柱子的位置</text>
<text x="716" y="372" class="t2">只与台基的大小有关;推算时只读取这一部分,无需读取其他节点。」</text>
<text x="716" y="396" class="t3">KEVIN 判词 2026-07-17 · 空间 MDP 入论文素材</text>
<text x="716" y="418" class="t2s">推论:局部马尔可夫性从决策序列推广到空间依赖</text>

<!-- 全局门 -->
<path d="M320,394 L320,466" class="lnf" marker-end="url(#ah)"/>
<path d="M555,206 L555,466" class="lnf" marker-end="url(#ah)"/>
<text x="332" y="440" class="t5">全部体量合并后整体检查</text>
<rect x="140" y="468" width="500" height="72" class="bx2"/>
<text x="156" y="492" class="t1">全局门 GLOBAL GATE</text>
<text x="156" y="514" class="t2">非局部约束不纳入父节点集合:重叠 overlap · 越界 out-of-bounds</text>
<text x="156" y="532" class="t2s">推导局部化,验证全局化 · 全楼重叠校验尚未完成,已作为假阴性问题列入待办</text>

<!-- 三推论 -->
<text x="40" y="576" class="t3">三推论 COROLLARIES(REPORT 追加五)</text>
<text x="40" y="598" class="t2">① 编译态越小,漂移面越小 ② 父节点未变,子树保持不动,为 Selective Uncommit 提供理论依据(P3.1) ③ 父集越小,菜单越小,H(A_t|S_t) 越低</text>
<text x="40" y="620" class="gt-m">落位求解器(已立项):轴 + 关系 → 坐标的确定性前向推算 —— LLM 永不回答坐标</text>
<text x="40" y="644" class="t3">真源:REPORT.md 追加五(Kevin 空间 MDP 判词) · 追加四(标准答案五拓扑) · 看板 05 明日(落位求解器 v0)</text>
</svg>
